# xmcd
#
# Track frame offsets: 
#        150
#        14027
#        25245
#        38050
#        50935
#        64822
#        75225
#        86892
#        97975
#        108915
#        123752
#        134097
#        147167
#        157295
#        170570
#        182117
#        194722
#        206247
#        216520
#        228692
#        238252
#        250835
#
# Disc length: 3478 seconds
#
# Revision: 2
# Processed by: cddbd v1.5.2PL0 Copyright (c) Steve Scherf et al.
# Submitted via: ExactAudioCopy v0.99pb3
#
DISCID=550d9416
DTITLE=Floyd Dixon - Marshall Texas is My Home
DYEAR=1991
DGENRE=Blues
TTITLE0=Hard Living Alone
TTITLE1=Please Don't Go
TTITLE2=Old Memories
TTITLE3=Hole in the Wall
TTITLE4=Time Rings About a Change
TTITLE5=Me Quieras
TTITLE6=Call Operator 210
TTITLE7=Ooh-Eee ! Ooh-Eee !
TTITLE8=Chicken Crowing
TTITLE9=Carlos
TTITLE10=Nose Trouble
TTITLE11=Reap What You Sow
TTITLE12=Judgement Day
TTITLE13=Instrumental Shuffle
TTITLE14=Ooh-Eee ! Ooh-Eee !
TTITLE15=Hey Bartender
TTITLE16=Never Can Tell When a Woman Changes Her Mind
TTITLE17=Oh Baby
TTITLE18=What is Life Without a Home?
TTITLE19=Rita
TTITLE20=I'll Always Love You
TTITLE21=Oooh Little Girl
EXTD=
EXTT0=
EXTT1=
EXTT2=
EXTT3=
EXTT4=
EXTT5=
EXTT6=
EXTT7=
EXTT8=
EXTT9=
EXTT10=
EXTT11=
EXTT12=
EXTT13=
EXTT14=
EXTT15=
EXTT16=
EXTT17=
EXTT18=
EXTT19=
EXTT20=
EXTT21=
PLAYORDER=
